<svg width="25" height="25" viewBox="0 0 25 25" fill="none" xmlns="http://www.w3.org/2000/svg">
<path d="M12.5 24C18.8513 24 24 18.8513 24 12.5C24 11.5782 23.8915 10.6818 23.6867 9.82272C23.5725 9.34354 23.3405 8.73422 22.5 9C21.5 9.31624 21.7744 9.81585 21.8637 10.2107C22.0232 10.9153 22.2035 11.7472 22.2035 12.5C22.2035 17.9581 17.9581 22 12.5 22C7.04187 22 3 17.9581 3 12.5C3 7.04187 7.04187 3 12.5 3C15.9651 3 18.7357 4.30104 20.5 7C20.7353 7.35987 21.149 7.83878 21.8637 7.5C22.2836 7.30098 22.4533 6.71715 22.2035 6.32539C20.1618 3.12354 16.5789 1 12.5 1C6.14873 1 1 6.14872 1 12.5C1 18.8513 6.14873 24 12.5 24Z" fill="#C2C2C2"/>
<path fill-rule="evenodd" clip-rule="evenodd" d="M18.4758 7.87885L15.0474 14.6068C14.9961 14.7075 14.9339 14.8087 14.8316 14.8567L7.85416 18.1311C7.07962 18.4946 6.28352 17.6722 6.67197 16.9098L10.1779 10.0296C10.1852 10.0099 10.2231 9.96287 10.3167 9.93188L17.2936 6.65762C18.0681 6.29413 18.8642 7.11653 18.4758 7.87885ZM16.0344 9.83205L14.0039 13.7281C13.9936 13.7479 13.9806 13.7663 13.9629 13.7798C13.9479 13.7913 13.9285 13.8042 13.9075 13.8139L9.83524 15.6824C9.38319 15.8898 8.91856 15.4205 9.14527 14.9855L11.1914 11.0593C11.1957 11.0481 11.2179 11.0213 11.2724 11.0036L15.3444 9.13516C15.7965 8.92774 16.2611 9.39704 16.0344 9.83205Z" fill="#C2C2C2"/>
</svg>
