<svg width="27" height="27" viewBox="0 0 27 27" fill="none" xmlns="http://www.w3.org/2000/svg">
<path d="M13.5 1C8.26169 1 4 4.94279 4 9.78906C4 11.4265 4.49026 13.0244 5.41808 14.4107L12.9592 25.6537C13.1037 25.8691 13.3582 26 13.6319 26H13.6382C13.9143 25.998 14.1693 25.8631 14.3111 25.6439L17.3306 20.9797C17.5754 20.6015 17.4471 20.095 17.0518 19.8789C16.696 19.6845 16.2504 19.7973 16.03 20.1377L13.6199 23.8606L6.76381 13.639C5.99151 12.485 5.57277 11.1538 5.57277 9.78906C5.57277 5.7505 9.13475 2.45509 13.5 2.45509C17.8652 2.45509 21.4219 5.7505 21.4219 9.78906C21.4219 11.1133 21.0308 12.4106 20.3013 13.54L18.3319 16.582C18.0871 16.9601 18.2154 17.4667 18.6107 17.6827C18.9666 17.8772 19.4121 17.7643 19.6325 17.4239L21.66 14.292C22.5367 12.9349 23 11.3779 23 9.78906C23 4.94279 18.7383 1 13.5 1Z" fill="#FF764A"/>
<path fill-rule="evenodd" clip-rule="evenodd" d="M13.5 4.94737C10.9779 4.94737 8.92593 7.01329 8.92593 9.55263C8.92593 12.0758 10.9445 14.1579 13.5 14.1579C16.087 14.1579 18.0741 12.048 18.0741 9.55263C18.0741 7.01329 16.0221 4.94737 13.5 4.94737ZM13.5 12.6331C11.8098 12.6331 10.4405 11.2498 10.4405 9.55263C10.4405 7.85975 11.8186 6.4722 13.5 6.4722C15.1814 6.4722 16.5545 7.85975 16.5545 9.55263C16.5545 11.225 15.217 12.6331 13.5 12.6331Z" fill="#FF764A"/>
</svg>
