<svg width="25" height="25" viewBox="0 0 25 25" fill="none" xmlns="http://www.w3.org/2000/svg">
<path d="M12.5 0C7.26169 0 3 3.94279 3 8.78906C3 10.4265 3.49026 12.0244 4.41808 13.4107L11.9592 24.6537C12.1037 24.8691 12.3582 25 12.6319 25H12.6382C12.9143 24.998 13.1693 24.8631 13.3111 24.6439L16.3772 19.9078C16.6144 19.5413 16.5629 19.0588 16.2536 18.7507V18.7507C15.8556 18.3542 15.1989 18.4015 14.8618 18.8509L12.5 22L6 12.639C5.2277 11.485 5 9.91737 5 8.55263C5 4.51407 8.13475 2 12.5 2C16.8652 2 20 4.51407 20 8.55263C20 9.87689 19.7296 11.5096 19 12.639L17.2576 15.2818C16.9937 15.682 17.0954 16.2194 17.4872 16.4956V16.4956C17.899 16.7859 18.4696 16.6755 18.7434 16.2526L20.66 13.292C21.5367 11.9349 22 10.3779 22 8.78906C22 3.94279 17.7383 0 12.5 0Z" fill="#C2C2C2"/>
<path fill-rule="evenodd" clip-rule="evenodd" d="M12.5 5.5C9.97785 5.5 8.5 7.01329 8.5 9.55263C8.5 12.0758 9.94446 13.639 12.5 13.639C15.087 13.639 16.7841 12.048 16.7841 9.55263C16.7841 7.01329 15.0221 5.5 12.5 5.5ZM12.6382 12C10.948 12 10 11.2498 10 9.55263C10 7.85975 10.8186 7 12.5 7C14.1814 7 15 7.85975 15 9.55263C15 11.225 14.3552 12 12.6382 12Z" fill="#C2C2C2"/>
</svg>
