<svg width="25" height="25" viewBox="0 0 25 25" fill="none" xmlns="http://www.w3.org/2000/svg">
<path d="M3.61529 4.6943C3.19132 4.34036 2.56071 4.39713 2.20677 4.8211C1.85283 5.24507 1.9096 5.87568 2.33357 6.22962L3.61529 4.6943ZM22.6664 6.22964C23.0904 5.87572 23.1472 5.24511 22.7933 4.82113C22.4393 4.39715 21.8087 4.34036 21.3847 4.69428L22.6664 6.22964ZM7.67703 9.38779L7.03612 10.1555L7.0461 10.1636L7.67703 9.38779ZM17.3226 9.38779L17.9536 10.1637L17.9634 10.1555L17.3226 9.38779ZM4.95277 20.9991L4.54352 21.9115L4.95277 20.9991ZM1.99275 17.9902L2.91007 17.592L1.99275 17.9902ZM23.0072 17.9902L22.0899 17.592L23.0072 17.9902ZM20.0472 20.9991L20.4565 21.9115L20.0472 20.9991ZM20.0472 4.0009L20.4565 3.08848L20.0472 4.0009ZM23.0072 7.00984L22.0899 7.40801L23.0072 7.00984ZM4.95277 4.0009L4.54352 3.08848L4.95277 4.0009ZM1.99275 7.00984L2.91007 7.40801L1.99275 7.00984ZM2.33357 6.22962L7.03617 10.1555L8.31789 8.62013L3.61529 4.6943L2.33357 6.22962ZM17.9634 10.1555L22.6664 6.22964L21.3847 4.69428L16.6818 8.62011L17.9634 10.1555ZM7.0461 10.1636C10.2332 12.7555 14.7664 12.7555 17.9535 10.1636L16.6917 8.61195C14.2396 10.606 10.76 10.606 8.30796 8.61195L7.0461 10.1636ZM10.3537 4.5H14.6463V2.5H10.3537V4.5ZM14.6463 20.5H10.3537V22.5H14.6463V20.5ZM10.3537 20.5C8.91088 20.5 7.88268 20.4994 7.07412 20.4401C6.27565 20.3815 5.7699 20.2696 5.36202 20.0867L4.54352 21.9115C5.2524 22.2295 6.01905 22.368 6.92781 22.4347C7.82649 22.5006 8.94035 22.5 10.3537 22.5V20.5ZM0.5 12.5C0.5 13.9374 0.499413 15.0676 0.564104 15.9789C0.62946 16.8996 0.765087 17.6733 1.07544 18.3883L2.91007 17.592C2.72767 17.1718 2.61692 16.652 2.55908 15.8373C2.50059 15.0132 2.5 13.9659 2.5 12.5H0.5ZM5.36202 20.0867C4.27107 19.5974 3.39499 18.7092 2.91007 17.592L1.07544 18.3883C1.75652 19.9574 2.99189 21.2156 4.54352 21.9115L5.36202 20.0867ZM22.5 12.5C22.5 13.9659 22.4994 15.0132 22.4409 15.8373C22.3831 16.652 22.2723 17.1718 22.0899 17.592L23.9246 18.3883C24.2349 17.6733 24.3705 16.8996 24.4359 15.9789C24.5006 15.0676 24.5 13.9374 24.5 12.5H22.5ZM14.6463 22.5C16.0596 22.5 17.1735 22.5006 18.0722 22.4347C18.9809 22.368 19.7476 22.2295 20.4565 21.9115L19.638 20.0867C19.2301 20.2696 18.7243 20.3815 17.9259 20.4401C17.1173 20.4994 16.0891 20.5 14.6463 20.5V22.5ZM22.0899 17.592C21.605 18.7092 20.7289 19.5974 19.638 20.0867L20.4565 21.9115C22.0081 21.2156 23.2435 19.9574 23.9246 18.3883L22.0899 17.592ZM14.6463 4.5C16.0891 4.5 17.1173 4.50063 17.9259 4.55993C18.7243 4.6185 19.2301 4.73038 19.638 4.91332L20.4565 3.08848C19.7476 2.77052 18.9809 2.63195 18.0722 2.56529C17.1735 2.49937 16.0596 2.5 14.6463 2.5V4.5ZM24.5 12.5C24.5 11.0626 24.5006 9.93243 24.4359 9.02109C24.3705 8.10038 24.2349 7.32668 23.9246 6.61167L22.0899 7.40801C22.2723 7.82822 22.3831 8.34796 22.4409 9.1627C22.4994 9.9868 22.5 11.0341 22.5 12.5H24.5ZM19.638 4.91332C20.7289 5.40264 21.605 6.29084 22.0899 7.40801L23.9246 6.61167C23.2435 5.04258 22.0081 3.78443 20.4565 3.08848L19.638 4.91332ZM10.3537 2.5C8.94035 2.5 7.82649 2.49937 6.92781 2.56529C6.01905 2.63195 5.2524 2.77052 4.54352 3.08848L5.36202 4.91332C5.7699 4.73038 6.27565 4.6185 7.07412 4.55993C7.88267 4.50063 8.91088 4.5 10.3537 4.5V2.5ZM2.5 12.5C2.5 11.0341 2.50059 9.9868 2.55908 9.1627C2.61692 8.34796 2.72767 7.82822 2.91007 7.40801L1.07544 6.61167C0.765087 7.32668 0.62946 8.10038 0.564104 9.02109C0.499413 9.93243 0.5 11.0626 0.5 12.5H2.5ZM4.54352 3.08848C2.99189 3.78443 1.75652 5.04258 1.07544 6.61167L2.91007 7.40801C3.39499 6.29084 4.27107 5.40264 5.36202 4.91332L4.54352 3.08848Z" fill="#C2C2C2"/>
</svg>
