<svg width="25" height="25" viewBox="0 0 25 25" fill="none" xmlns="http://www.w3.org/2000/svg">
<path d="M23.9417 20.7082C23.8406 20.2225 23.3649 19.9107 22.879 20.0118C22.3932 20.1129 22.0814 20.5887 22.1826 21.0745C22.2408 21.3543 22.1714 21.6411 21.9923 21.8614C21.8885 21.9891 21.6571 22.2031 21.2736 22.2031H3.72643C3.34289 22.2031 3.11149 21.989 3.00772 21.8614C2.82853 21.6411 2.75917 21.3543 2.81743 21.0745C3.74983 16.596 7.70004 13.3245 12.2618 13.2142C12.3408 13.2172 12.4202 13.2188 12.5 13.2188C12.58 13.2188 12.6597 13.2172 12.7391 13.2141C15.9524 13.2912 18.9225 14.9188 20.7211 17.6012C20.9974 18.0134 21.5555 18.1234 21.9677 17.8471C22.3798 17.5708 22.4899 17.0127 22.2136 16.6006C20.7394 14.4019 18.5987 12.8031 16.1579 11.9998C17.6453 10.8844 18.6094 9.10737 18.6094 7.10938C18.6094 3.74068 15.8687 1 12.5 1C9.13126 1 6.39061 3.74068 6.39061 7.10938C6.39061 9.10858 7.3559 10.8866 8.84483 12.0019C7.48065 12.451 6.2006 13.1498 5.08024 14.0714C3.02587 15.7612 1.59749 18.1182 1.05829 20.7082C0.889295 21.5198 1.09176 22.3534 1.61366 22.9951C2.133 23.6338 2.9031 24 3.72643 24H21.2735C22.0969 24 22.867 23.6338 23.3863 22.9951C23.9083 22.3534 24.1107 21.5198 23.9417 20.7082ZM8.18749 7.10938C8.18749 4.73144 10.1221 2.79688 12.5 2.79688C14.8779 2.79688 16.8125 4.73144 16.8125 7.10938C16.8125 9.41409 14.9952 11.3023 12.7183 11.4164C12.6456 11.415 12.5729 11.4144 12.5 11.4144C12.4275 11.4144 12.355 11.4151 12.2826 11.4164C10.0053 11.3028 8.18749 9.41441 8.18749 7.10938Z" fill="#C2C2C2"/>
</svg>
