<svg width="39" height="37" viewBox="0 0 39 37" fill="none" xmlns="http://www.w3.org/2000/svg">
<path d="M37.2287 13.2767L25.9832 11.6343L20.9562 1.3924C20.8189 1.11199 20.593 0.884982 20.3139 0.746999C19.6141 0.399817 18.7637 0.689135 18.4139 1.3924L13.3868 11.6343L2.14133 13.2767C1.83129 13.3212 1.54783 13.4681 1.3308 13.6907C1.06843 13.9617 0.923853 14.3263 0.928836 14.7044C0.933819 15.0824 1.08796 15.4431 1.35738 15.707L9.49364 23.6788L7.57141 34.9356C7.52633 35.1974 7.55517 35.4667 7.65464 35.713C7.75412 35.9592 7.92025 36.1725 8.13421 36.3286C8.34817 36.4848 8.60138 36.5776 8.86515 36.5965C9.12891 36.6154 9.39267 36.5596 9.62651 36.4356L19.685 31.121L29.7435 36.4356C30.0181 36.5825 30.337 36.6314 30.6426 36.578C31.4133 36.4445 31.9315 35.71 31.7986 34.9356L29.8764 23.6788L38.0126 15.707C38.2341 15.4889 38.3802 15.204 38.4245 14.8925C38.5441 14.1135 38.0038 13.3925 37.2287 13.2767V13.2767Z" fill="#FDBD4E"/>
</svg>
