<svg width="22" height="25" viewBox="0 0 22 25" fill="none" xmlns="http://www.w3.org/2000/svg">
<path d="M13.6602 11.91C14.0476 11.91 14.4312 11.8337 14.7891 11.6855C15.147 11.5372 15.4722 11.3199 15.7461 11.046C16.0201 10.772 16.2374 10.4468 16.3856 10.0889C16.5339 9.73102 16.6102 9.34741 16.6102 8.96001C16.6102 8.17762 16.2994 7.42728 15.7461 6.87405C15.1929 6.32082 14.4426 6.01001 13.6602 6.01001C12.8778 6.01001 12.1274 6.32082 11.5742 6.87405C11.021 7.42728 10.7102 8.17762 10.7102 8.96001C10.7102 9.34741 10.7865 9.73102 10.9347 10.0889C11.083 10.4468 11.3003 10.772 11.5742 11.046C12.1274 11.5992 12.8778 11.91 13.6602 11.91ZM13.6602 0.700012C18.215 0.700012 21.9202 4.39341 21.9202 8.96001C21.9202 15.155 13.6602 24.3 13.6602 24.3C13.6602 24.3 5.40018 15.155 5.40018 8.96001C5.40018 6.76932 6.27042 4.66836 7.81947 3.11931C9.36852 1.57026 11.4695 0.700012 13.6602 0.700012ZM3.04018 8.96001C3.04018 14.27 9.03457 21.5388 10.1202 22.8958L8.94017 24.3C8.94017 24.3 0.680176 15.155 0.680176 8.96001C0.680176 5.21941 3.16998 2.05701 6.58017 1.04221C4.40898 2.98921 3.04018 5.80941 3.04018 8.96001Z" fill="white"/>
</svg>
