<svg width="29" height="18" viewBox="0 0 29 18" fill="none" xmlns="http://www.w3.org/2000/svg">
<path d="M26.944 0.475769H1.45604C0.674142 0.475769 0.0400391 1.10987 0.0400391 1.89177V16.0518C0.0400391 16.8337 0.674142 17.4678 1.45604 17.4678H8.54577C9.66043 17.4678 10.6711 16.8142 11.1282 15.7978L12.3557 13.0702C12.7048 12.2941 13.419 11.8038 14.2 11.8038C14.9811 11.8038 15.6952 12.2941 16.0444 13.0702L17.2719 15.7978C17.729 16.8142 18.7401 17.4678 19.8543 17.4678H26.944C27.7259 17.4678 28.36 16.8337 28.36 16.0518V1.89177C28.36 1.10987 27.7259 0.475769 26.944 0.475769ZM7.12004 11.0958C5.5558 11.0958 4.28804 9.82801 4.28804 8.26377C4.28804 6.69953 5.5558 5.43177 7.12004 5.43177C8.68428 5.43177 9.95204 6.69953 9.95204 8.26377C9.95204 9.82801 8.68428 11.0958 7.12004 11.0958ZM21.28 11.0958C19.7158 11.0958 18.448 9.82801 18.448 8.26377C18.448 6.69953 19.7158 5.43177 21.28 5.43177C22.8443 5.43177 24.112 6.69953 24.112 8.26377C24.112 9.82801 22.8443 11.0958 21.28 11.0958Z" fill="#545454"/>
</svg>
