<svg width="20" height="20" viewBox="0 0 20 20" fill="none" xmlns="http://www.w3.org/2000/svg">
<path d="M12.8968 9.78385L18.923 3.75767C19.7826 2.89804 19.7826 1.50434 18.923 0.644719C18.0633 -0.214906 16.6697 -0.214906 15.81 0.644719L9.78385 6.6709L3.75767 0.644719C2.89804 -0.214906 1.50434 -0.214906 0.644719 0.644719C-0.214906 1.50434 -0.214906 2.89804 0.644719 3.75767L6.6709 9.78385L0.644719 15.81C-0.214906 16.6697 -0.214906 18.0634 0.644719 18.923C1.07453 19.3527 1.63785 19.5677 2.20117 19.5677C2.76449 19.5677 3.32786 19.3528 3.75762 18.923L9.78385 12.8968L15.81 18.923C16.2398 19.3527 16.8032 19.5677 17.3665 19.5677C17.9298 19.5677 18.4931 19.3528 18.9229 18.923C19.7826 18.0634 19.7826 16.6697 18.9229 15.81L12.8968 9.78385Z" fill="white"/>
</svg>
